<svg xmlns="http://www.w3.org/2000/svg" width="19.5" height="19.145" viewBox="0 0 19.5 19.145">
  <g id="Group_286" data-name="Group 286" transform="translate(-2.25 -298.25)">
    <path id="Path_799" data-name="Path 799" d="M3.353,310.812l.729-.175Zm0-5.979.729.175Zm17.294,0-.729.175Zm0,5.979-.729-.175Zm-5.6,5.487-.168-.731Zm-6.1,0-.168.731Zm0-16.953.168.731Zm6.1,0-.168.731ZM4.082,310.637a12.086,12.086,0,0,1,0-5.629l-1.459-.35a13.589,13.589,0,0,0,0,6.328Zm15.835-5.629a12.084,12.084,0,0,1,0,5.629l1.459.349a13.588,13.588,0,0,0,0-6.328Zm-5.036,10.56a12.859,12.859,0,0,1-5.763,0l-.336,1.462a14.384,14.384,0,0,0,6.435,0ZM9.118,300.077a12.859,12.859,0,0,1,5.763,0l.336-1.462a14.355,14.355,0,0,0-6.435,0Zm0,15.491a6.689,6.689,0,0,1-5.036-4.931l-1.459.349a8.189,8.189,0,0,0,6.159,6.044Zm6.1,1.462a8.189,8.189,0,0,0,6.159-6.044l-1.459-.349a6.689,6.689,0,0,1-5.036,4.931Zm-.336-16.953a6.688,6.688,0,0,1,5.036,4.931l1.459-.35a8.19,8.19,0,0,0-6.159-6.043Zm-6.1-1.462a8.19,8.19,0,0,0-6.159,6.043l1.459.35a6.688,6.688,0,0,1,5.036-4.931ZM14.83,317a26.864,26.864,0,0,1,.107-3.255,2.284,2.284,0,0,1,.582-1.432l-1.05-1.071a3.747,3.747,0,0,0-1.018,2.3A27.943,27.943,0,0,0,13.33,317Zm5.492-6.868a29.637,29.637,0,0,0-3.522.118,3.869,3.869,0,0,0-2.33.992l1.05,1.071A2.411,2.411,0,0,1,17,311.737a28.572,28.572,0,0,1,3.326-.105Z" fill="#363853"/>
    <path id="Path_800" data-name="Path 800" d="M9,305h3m-3,3h5" fill="none" stroke="#363853" stroke-linecap="round" stroke-width="1.5"/>
  </g>
</svg>
