<svg xmlns="http://www.w3.org/2000/svg" width="22.782" height="24.008" viewBox="0 0 22.782 24.008">
  <g id="Group_283" data-name="Group 283" transform="translate(-1260.748 -150.25)">
    <path id="Path_765" data-name="Path 765" d="M1262.08,166.253l.9-.206Zm0-7.258.9.207Zm20.117,0-.9.207Zm0,7.258-.9-.206Zm-6.513,6.662.222.9Zm-7.091,0,.209-.9Zm0-20.58.209.9Zm7.091,0,.222-.9Zm-7.461-1.161a.923.923,0,1,0-1.847,0Zm-1.847,3.1a.923.923,0,1,0,1.847,0Zm11.524-3.1a.923.923,0,1,0-1.847,0Zm-1.847,3.1a.923.923,0,1,0,1.847,0Zm-13.075,11.778a15.657,15.657,0,0,1,0-6.845l-1.8-.412a17.163,17.163,0,0,0,0,7.67ZM1281.3,159.2a15.657,15.657,0,0,1,0,6.845l1.8.412a17.163,17.163,0,0,0,0-7.67Zm-5.823,12.815a14.314,14.314,0,0,1-6.673,0l-.431,1.8a16.135,16.135,0,0,0,7.535,0Zm-6.673-18.785a14.314,14.314,0,0,1,6.673,0l.431-1.8a16.135,16.135,0,0,0-7.535,0Zm0,18.785a7.945,7.945,0,0,1-5.823-5.97l-1.8.412a9.776,9.776,0,0,0,7.19,7.352Zm7.1,1.8a9.776,9.776,0,0,0,7.19-7.352l-1.8-.412a7.945,7.945,0,0,1-5.823,5.97Zm-.431-20.58a7.943,7.943,0,0,1,5.823,5.97l1.8-.412a9.775,9.775,0,0,0-7.19-7.352Zm-7.1-1.8a9.775,9.775,0,0,0-7.19,7.352l1.8.412a7.943,7.943,0,0,1,5.823-5.97Zm-1.994-.263v3.1h1.847v-3.1Zm9.677,0v3.1h1.847v-3.1Z" transform="translate(0)" fill="#363853"/>
    <path id="Path_766" data-name="Path 766" d="M1266.276,158.528a.925.925,0,0,0-1.206,1.4Zm.628,1.756-.6.7a.932.932,0,0,0,1.207,0Zm3.066-1.41a.924.924,0,0,0-1.206-1.4Zm-3.693,4.93a.925.925,0,0,0-1.206,1.4Zm.628,1.757-.6.7a.929.929,0,0,0,1.207,0Zm3.066-1.41a.925.925,0,0,0-1.206-1.4Zm2.475-5.317a.923.923,0,0,0,0,1.847Zm4.309,1.847a.923.923,0,0,0,0-1.847Zm-4.309,3.429a.923.923,0,0,0,0,1.847Zm4.309,1.847a.923.923,0,0,0,0-1.847Zm-11.684-6.025,1.231,1.055,1.207-1.4-1.231-1.055Zm2.438,1.055,2.462-2.111-1.206-1.4-2.462,2.11Zm-2.438,4.22,1.231,1.055,1.207-1.4-1.231-1.056Zm2.438,1.055,2.462-2.11-1.206-1.4-2.462,2.111Zm4.937-5.581h4.309v-1.847h-4.309Zm0,5.276h4.309v-1.847h-4.309Z" transform="translate(0.925 1.618)" fill="#363853"/>
  </g>
</svg>
