<svg xmlns="http://www.w3.org/2000/svg" width="19.495" height="19.5" viewBox="0 0 19.495 19.5">
  <path id="Path_698" data-name="Path 698" d="M1039.35,15.05l-.73.171Zm0-6.1-.73-.171Zm17.3,0-.73.171Zm0,6.1-.73-.171Zm-5.6,5.6-.17-.73Zm-6.1,0-.17.73Zm0-17.294-.17-.73Zm6.1,0-.17.73Zm-3.8,6.032a.75.75,0,0,0,1.5,0Zm1.5-1.546a.75.75,0,0,0-1.5,0Zm-1.5,8.322a.75.75,0,1,0,1.5,0Zm1.5-1.546a.75.75,0,0,0-1.5,0Zm-2.64-.658a.75.75,0,0,0-.75-1.3Zm-2.09-.526a.75.75,0,0,0,.75,1.3Zm7.96-2.862a.75.75,0,0,0-.75-1.3Zm-2.09-.526a.75.75,0,0,0,.75,1.3Zm-4.53,1.3a.75.75,0,0,0,.75-1.3Zm-.59-2.072a.75.75,0,0,0-.75,1.3Zm6.46,5.46a.75.75,0,0,0,.75-1.3Zm-.59-2.072a.75.75,0,0,0-.75,1.3Zm-10.56,2.22a12.719,12.719,0,0,1,0-5.757l-1.46-.343a14.3,14.3,0,0,0,0,6.442Zm15.84-5.757a12.719,12.719,0,0,1,0,5.757l1.46.343a14.3,14.3,0,0,0,0-6.442Zm-5.04,10.8a12.618,12.618,0,0,1-5.76,0l-.34,1.46a14.1,14.1,0,0,0,6.44,0Zm-5.76-15.834a12.618,12.618,0,0,1,5.76,0l.34-1.46a14.1,14.1,0,0,0-6.44,0Zm0,15.834a6.769,6.769,0,0,1-5.04-5.039l-1.46.343a8.263,8.263,0,0,0,6.16,6.156Zm6.1,1.46a8.263,8.263,0,0,0,6.16-6.156l-1.46-.343a6.769,6.769,0,0,1-5.04,5.039Zm-.34-17.294a6.769,6.769,0,0,1,5.04,5.039l1.46-.343a8.263,8.263,0,0,0-6.16-6.156Zm-6.1-1.46a8.263,8.263,0,0,0-6.16,6.156l1.46.343a6.769,6.769,0,0,1,5.04-5.039Zm3.97,6.762V7.839h-1.5V9.385Zm0,6.776V14.615h-1.5v1.546Zm-3.39-3.5-1.34.773.75,1.3,1.34-.773Zm5.87-3.388-1.34.773.75,1.3,1.34-.773Zm-5.12.773-1.34-.773-.75,1.3,1.34.773Zm5.87,3.388-1.34-.773-.75,1.3,1.34.773Z" transform="translate(-1038.252 -2.25)" fill="#363853"/>
</svg>
