<svg xmlns="http://www.w3.org/2000/svg" width="18.5" height="19.501" viewBox="0 0 18.5 19.501">
  <path id="Path_711" data-name="Path 711" d="M234.314,93.49l-.7-.273Zm-8.535-5.352-.731.168Zm0-4.911-.731-.168Zm16.472.221.731-.168Zm0,4.455-.731-.168Zm-10.932,6.921.295-.69h0Zm.374-17.552.174.729h0Zm4.593,0-.175.729Zm-5.085,17.5-.295.69h0Zm5.466-17.41.175-.729Zm5.495,5.7-.731.168h0Zm-10.693-5.736-.174-.729h0Zm-.77,4.983a.75.75,0,0,0,0,1.5Zm6.032,1.5a.75.75,0,0,0,0-1.5ZM230.7,85.764a.75.75,0,0,0,0,1.5Zm3.839,1.5a.75.75,0,0,0,0-1.5Zm-2.894-9.21.223-.053-.349-1.459-.223.053ZM236.108,78l.382.091.349-1.459-.381-.091Zm-4.5,16.133-.118-.05-.59,1.379.118.05Zm9.817-10.9.089.387,1.462-.336-.089-.387Zm-5.256,8.948h-1.061v1.5h1.061Zm-1.061,0a1.615,1.615,0,0,0-1.495,1.04l1.4.546a.119.119,0,0,1,.1-.087Zm-8.6-4.207a10.243,10.243,0,0,1,0-4.575l-1.462-.336a11.752,11.752,0,0,0,0,5.247Zm15.007-4.354a9.207,9.207,0,0,1,0,4.119l1.462.336a10.732,10.732,0,0,0,0-4.791Zm-10.5,11.9a3.025,3.025,0,0,0,3.992-1.75l-1.4-.546a1.525,1.525,0,0,1-2.005.917ZM231.864,78a9.1,9.1,0,0,1,4.244,0l.35-1.459a10.606,10.606,0,0,0-4.943,0Zm-.371,16.082a8.737,8.737,0,0,1-4.983-6.113l-1.462.336a10.237,10.237,0,0,0,5.855,7.157Zm10.024-6.349a5.571,5.571,0,0,1-5.345,4.443v1.5a7.07,7.07,0,0,0,6.807-5.607Zm-5.027-9.642a6.765,6.765,0,0,1,4.938,5.137l1.462-.336a8.266,8.266,0,0,0-6.051-6.26Zm-5.2-1.5a8.532,8.532,0,0,0-6.247,6.463l1.462.336a7.033,7.033,0,0,1,5.134-5.34Zm-.6,7.213h6.032v-1.5H230.7Zm0,3.456h3.839v-1.5H230.7Z" transform="translate(-224.75 -76.25)" fill="#363853"/>
</svg>
